<?xml version="1.0" encoding="utf-8" ?><svg xmlns="http://www.w3.org/2000/svg" xmlns:xlink="http://www.w3.org/1999/xlink" width="2292" height="2292" viewBox="0 0 2292 2292"><path fill="white" transform="scale(1.11908 1.11908)" d="M0 0L2048 0L2048 2048L0 2048L0 0Z"/><path fill="#023047" transform="scale(1.11908 1.11908)" d="M1100.79 480.315C1119.23 478.981 1152 480.026 1171.14 480.049L1304.82 480.074L1426.02 479.915C1447.28 479.87 1469.41 479.493 1490.61 480.352C1498.44 480.669 1509.06 485.485 1515.74 489.206C1526.6 495.256 1539.18 512.122 1541.49 524.398C1544.62 541.032 1543.72 565.186 1543.7 582.7L1543.6 664.724L1543.64 724.501C1543.66 737.291 1544.1 750.043 1542.82 762.788C1539.65 794.373 1516.94 812.321 1487.46 818.496C1464.51 820.601 1440.26 818.813 1420.92 805.275C1376.93 774.49 1399.38 720.524 1391.81 680.549C1388.5 662.258 1375.71 647.107 1358.24 640.764C1342.68 634.986 1313.33 636.848 1295.5 636.871L1165.7 637.019C1144.38 637.038 1118.38 638.494 1098.22 635.908C1058.8 630.848 1040.77 597.267 1043.62 560.323C1045.28 538.795 1041.44 524.373 1056.16 505.254C1068.4 489.344 1081.85 483.288 1100.79 480.315Z"/><path fill="#023047" transform="scale(1.11908 1.11908)" d="M925.849 480.338C944.635 479.249 969.556 478.447 986.501 487.794C1028.13 510.761 1016.45 554.202 1017.96 593.47C1018.41 605.338 1016.97 612.069 1020.77 623.896C1025.92 639.789 1038.27 652.322 1054.08 657.713C1068.72 662.659 1099.92 661.19 1116.82 661.208L1245.86 661.106C1271.22 661.075 1313.91 657.117 1336.19 669.151C1364.19 684.277 1367.63 711.387 1368 739.804C1368.53 780.863 1353.53 806.861 1311.97 816.39C1299.37 818.267 1265.23 817.337 1251.08 817.292L1139.88 817.148L1002.06 817.171C983.767 817.182 948.271 818.274 930.952 816.555C919.173 815.283 907.9 811.083 898.161 804.339C883.31 793.786 873.239 777.786 870.146 759.832C868.217 748.089 868.92 721.428 868.948 708.558L868.95 625.959L868.964 565.259C868.974 548.925 867.262 533.312 873.817 518.04C883.378 495.766 902.515 483.566 925.849 480.338Z"/><path fill="#023047" transform="scale(1.11908 1.11908)" d="M918.167 1216.36C942.462 1216.14 966.923 1213.44 986.292 1229.81C1011.47 1251.09 1010.38 1271.2 1010.51 1300.86C1010.59 1317.61 1008.75 1354.02 1010.68 1368.83C1012 1379.57 1016.55 1389.65 1023.74 1397.74C1060.08 1439.37 1133.95 1397.82 1175.55 1429.96C1189.23 1440.49 1197.52 1456.67 1199.7 1473.48C1205.53 1518.3 1194.02 1562.53 1141.24 1568.75C1131.22 1569.55 1110.75 1568.95 1100.18 1568.96L1016.5 1569.02L949.179 1569.03C937.365 1569.02 923.043 1569.67 911.342 1568.23C885.655 1565.07 862.609 1542.27 859.72 1516.53C857.979 1501.03 858.574 1484.03 858.566 1468.58L858.674 1388.2L858.526 1312.87C858.505 1289.63 855.35 1262.42 869.927 1242.95C882.602 1226.02 897.453 1218.75 918.167 1216.36Z"/><path fill="#023047" transform="scale(1.11908 1.11908)" d="M915.566 845.276C984.291 841.777 1057.15 847.166 1126.21 844.886C1146.15 843.582 1165.82 847.525 1180.52 862.15C1206.27 887.759 1206.77 951.126 1180.89 976.771C1147.05 1010.29 1096.01 990.332 1055.97 998.201C1044.96 1000.28 1034.83 1005.63 1026.9 1013.55C1013.33 1027.29 1011.53 1041.74 1011.59 1059.75C1011.84 1092.2 1017.08 1134.44 998.938 1161C987.942 1177.02 970.95 1187.93 951.805 1191.27C930.114 1195.06 905.276 1193.1 886.617 1179.92C854.055 1156.91 858.76 1124.87 858.643 1088.94L858.456 1011.66L858.603 943.449C858.627 929.601 858.384 915.884 859.319 902.056C861.462 870.35 885.583 850.197 915.566 845.276Z"/><path fill="#023047" transform="scale(1.11908 1.11908)" d="M556.673 480.33C569.189 479.27 586.745 479.745 599.742 479.742L674.654 479.761L742.157 479.737C776.438 479.597 815.456 473.872 835.606 508.93C845.957 526.941 846.898 571.725 841.386 590.909C814.234 685.409 680.305 587.15 657.04 683.14C653.515 716.255 663.34 754.663 647.239 785.253C627.975 821.852 566.086 827.664 533.03 808.949C500.069 790.289 503.903 754.738 503.93 721.51L503.945 648.385L503.915 576.984C503.917 530.923 500.96 492.435 556.673 480.33Z"/><path fill="#F13408" transform="scale(1.11908 1.11908)" d="M1095.23 1024.36C1101.21 1023.81 1111.51 1024.03 1117.72 1023.96C1137.85 1023.81 1155.02 1023.28 1172.31 1035.14C1202.41 1055.79 1199.35 1083.78 1199.36 1115.61L1199.34 1187.46L1199.29 1280.21C1199.26 1312.41 1204.55 1347.75 1179.61 1371.51C1167.84 1382.72 1158.6 1386.39 1142.8 1389.14C1116.92 1390.32 1083.83 1392.92 1062.04 1376.6C1032.86 1354.76 1036.76 1324.63 1036.83 1291.78L1037.05 1215.5L1037.01 1126.68C1036.97 1092.05 1031.01 1057.01 1064 1035.33C1074.69 1028.31 1082.67 1025.96 1095.23 1024.36Z"/><path fill="#023047" transform="scale(1.11908 1.11908)" d="M735.589 659.257C743.574 658.555 752.943 659.36 760.586 658.67C793.865 655.667 830.875 663.923 839.384 701.964C842.581 716.256 843.049 754.324 839.872 769.309C838.416 776.153 835.788 782.693 832.102 788.64C821.631 805.387 807.479 812.601 788.947 816.784C780.487 818.198 771.427 818.039 762.857 818.137C743.096 818.326 723.47 818.994 706.43 807.386C682.119 790.825 679.559 766.752 680.143 739.765C680.594 718.966 679.432 701.158 692.739 683.406C704.211 668.101 717.323 662.139 735.589 659.257Z"/></svg>