<?xml version="1.0" encoding="utf-8"?><svg xmlns="http://www.w3.org/2000/svg" width="880" height="880" viewBox="710 910 880 880"><path fill="#93C5FD" transform="scale(1.11908 1.11908)" d="M915.566 845.276C984.291 841.777 1057.15 847.166 1126.21 844.886C1146.15 843.582 1165.82 847.525 1180.52 862.15C1206.27 887.759 1206.77 951.126 1180.89 976.771C1147.05 1010.29 1096.01 990.332 1055.97 998.201C1044.96 1000.28 1034.83 1005.63 1026.9 1013.55C1013.33 1027.29 1011.53 1041.74 1011.59 1059.75C1011.84 1092.2 1017.08 1134.44 998.938 1161C987.942 1177.02 970.95 1187.93 951.805 1191.27C930.114 1195.06 905.276 1193.1 886.617 1179.92C854.055 1156.91 858.76 1124.87 858.643 1088.94L858.456 1011.66L858.603 943.449C858.627 929.601 858.384 915.884 859.319 902.056C861.462 870.35 885.583 850.197 915.566 845.276Z"/><path fill="#93C5FD" transform="scale(1.11908 1.11908)" d="M918.167 1216.36C942.462 1216.14 966.923 1213.44 986.292 1229.81C1011.47 1251.09 1010.38 1271.2 1010.51 1300.86C1010.59 1317.61 1008.75 1354.02 1010.68 1368.83C1012 1379.57 1016.55 1389.65 1023.74 1397.74C1060.08 1439.37 1133.95 1397.82 1175.55 1429.96C1189.23 1440.49 1197.52 1456.67 1199.7 1473.48C1205.53 1518.3 1194.02 1562.53 1141.24 1568.75C1131.22 1569.55 1110.75 1568.95 1100.18 1568.96L1016.5 1569.02L949.179 1569.03C937.365 1569.02 923.043 1569.67 911.342 1568.23C885.655 1565.07 862.609 1542.27 859.72 1516.53C857.979 1501.03 858.574 1484.03 858.566 1468.58L858.674 1388.2L858.526 1312.87C858.505 1289.63 855.35 1262.42 869.927 1242.95C882.602 1226.02 897.453 1218.75 918.167 1216.36Z"/><path fill="#F13408" transform="scale(1.11908 1.11908)" d="M1095.23 1024.36C1101.21 1023.81 1111.51 1024.03 1117.72 1023.96C1137.85 1023.81 1155.02 1023.28 1172.31 1035.14C1202.41 1055.79 1199.35 1083.78 1199.36 1115.61L1199.34 1187.46L1199.29 1280.21C1199.26 1312.41 1204.55 1347.75 1179.61 1371.51C1167.84 1382.72 1158.6 1386.39 1142.8 1389.14C1116.92 1390.32 1083.83 1392.92 1062.04 1376.6C1032.86 1354.76 1036.76 1324.63 1036.83 1291.78L1037.05 1215.5L1037.01 1126.68C1036.97 1092.05 1031.01 1057.01 1064 1035.33C1074.69 1028.31 1082.67 1025.96 1095.23 1024.36Z"/></svg>
